<mxfile host="app.diagrams.net" modified="2024-07-20T15:37:56.959Z" agent="Mozilla/5.0 (Windows NT 10.0; Win64; x64) AppleWebKit/537.36 (KHTML, like Gecko) Chrome/126.0.0.0 Safari/537.36" version="24.5.1" etag="QgxTey6qq_CXe2oWmLcW" type="github">
  <diagram name="Page-1" id="nrvGcaU_5XnHtMsSRTZr">
    <mxGraphModel>
      <root>
        <mxCell id="0" />
        <mxCell id="1" parent="0" />
      </root>
    </mxGraphModel>
  </diagram>
</mxfile>
